<svg xmlns="http://www.w3.org/2000/svg" style="position:absolute; width: 0; height: 0"><symbol viewBox="0 0 561 561" id="icon-album"><path d="M561 408V51c0-28.05-22.95-51-51-51H153c-28.05 0-51 22.95-51 51v357c0 28.05 22.95 51 51 51h357c28.05 0 51-22.95 51-51zM242.25 267.75l63.75 76.5 89.25-114.75L510 382.5H153l89.25-114.75zM0 102v408c0 28.05 22.95 51 51 51h408v-51H51V102H0z"></path></symbol><symbol viewBox="0 0 512 403.8" id="icon-picture"><path d="M503.9 0H8.1C3.6 0 0 3.6 0 8.1v387.6c0 4.5 3.6 8.1 8.1 8.1h495.8c4.5 0 8.1-3.6 8.1-8.1V8.1c0-4.5-3.6-8.1-8.1-8.1zm-40.6 339.2L351.8 223.6c-1.2-1.3-3.2-1.4-4.6-.2l-77.4 68.1-98.9-121.8c-.6-.8-1.6-1.2-2.6-1.2s-2 .5-2.6 1.3l-117 157V48.7h414.7l-.1 290.5z"></path><path d="M340.8 165.8c22 0 39.8-17.8 39.8-39.8 0-22-17.8-39.8-39.8-39.8-22 0-39.8 17.8-39.8 39.8 0 22 17.8 39.8 39.8 39.8z"></path></symbol><symbol viewBox="0 0 409.165 409.164" id="icon-user"><path d="M204.583 216.671c50.664 0 91.74-48.075 91.74-107.378 0-82.237-41.074-107.377-91.74-107.377-50.668 0-91.74 25.14-91.74 107.377.001 59.303 41.073 107.378 91.74 107.378zm202.581 158.046L360.88 270.454a23.23 23.23 0 0 0-10.465-11.138l-71.83-37.392a4.628 4.628 0 0 0-4.926.415c-20.316 15.366-44.203 23.488-69.076 23.488-24.877 0-48.762-8.122-69.078-23.488a4.635 4.635 0 0 0-4.93-.415L58.75 259.316a23.222 23.222 0 0 0-10.465 11.138L2.001 374.717a23.059 23.059 0 0 0 1.75 22.005 23.056 23.056 0 0 0 19.4 10.526h362.861a23.063 23.063 0 0 0 19.402-10.527 23.063 23.063 0 0 0 1.75-22.004z"></path></symbol></svg>